<svg width="18" height="17" viewBox="0 0 18 17" fill="none" xmlns="http://www.w3.org/2000/svg">
<path d="M7.74624 15.5686C7.74624 15.9129 7.88302 16.2431 8.12649 16.4866C8.36996 16.73 8.70017 16.8668 9.04449 16.8668C9.3888 16.8668 9.71902 16.73 9.96249 16.4866C10.206 16.2431 10.3427 15.9129 10.3427 15.5686V9.94283H15.9685C16.3128 9.94283 16.643 9.80605 16.8865 9.56258C17.1299 9.31912 17.2667 8.9889 17.2667 8.64459C17.2667 8.30027 17.1299 7.97006 16.8865 7.72659C16.643 7.48312 16.3128 7.34634 15.9685 7.34634H10.3427V1.72061C10.3427 1.37629 10.206 1.04608 9.96249 0.802611C9.71902 0.559142 9.3888 0.422363 9.04449 0.422363C8.70017 0.422363 8.36996 0.559142 8.12649 0.802611C7.88302 1.04608 7.74624 1.37629 7.74624 1.72061V7.34634H2.12051C1.7762 7.34634 1.44598 7.48312 1.20251 7.72659C0.959045 7.97006 0.822266 8.30027 0.822266 8.64459C0.822266 8.9889 0.959045 9.31912 1.20251 9.56258C1.44598 9.80605 1.7762 9.94283 2.12051 9.94283H7.74624V15.5686Z" fill="#111111"/>
</svg>
