<svg width="26" height="28" viewBox="0 0 26 28" fill="none" xmlns="http://www.w3.org/2000/svg">
<path d="M4.5 27.7501H21.5C22.6272 27.7501 23.7082 27.3023 24.5052 26.5053C25.3022 25.7082 25.75 24.6272 25.75 23.5001V6.50007C25.75 5.3729 25.3022 4.29189 24.5052 3.49486C23.7082 2.69783 22.6272 2.25007 21.5 2.25007H20.0833C20.0833 1.87434 19.9341 1.51401 19.6684 1.24833C19.4027 0.982656 19.0424 0.833401 18.6667 0.833401C18.2909 0.833401 17.9306 0.982656 17.6649 1.24833C17.3993 1.51401 17.25 1.87434 17.25 2.25007H8.75C8.75 1.87434 8.60074 1.51401 8.33507 1.24833C8.06939 0.982656 7.70906 0.833401 7.33333 0.833401C6.95761 0.833401 6.59728 0.982656 6.3316 1.24833C6.06592 1.51401 5.91667 1.87434 5.91667 2.25007H4.5C3.37283 2.25007 2.29183 2.69783 1.4948 3.49486C0.697767 4.29189 0.25 5.3729 0.25 6.50007V23.5001C0.25 24.6272 0.697767 25.7082 1.4948 26.5053C2.29183 27.3023 3.37283 27.7501 4.5 27.7501ZM3.08333 6.50007C3.08333 6.12434 3.23259 5.76401 3.49827 5.49833C3.76394 5.23266 4.12428 5.0834 4.5 5.0834H5.91667V6.50007C5.91667 6.87579 6.06592 7.23613 6.3316 7.5018C6.59728 7.76748 6.95761 7.91674 7.33333 7.91674C7.70906 7.91674 8.06939 7.76748 8.33507 7.5018C8.60074 7.23613 8.75 6.87579 8.75 6.50007V5.0834H17.25V6.50007C17.25 6.87579 17.3993 7.23613 17.6649 7.5018C17.9306 7.76748 18.2909 7.91674 18.6667 7.91674C19.0424 7.91674 19.4027 7.76748 19.6684 7.5018C19.9341 7.23613 20.0833 6.87579 20.0833 6.50007V5.0834H21.5C21.8757 5.0834 22.2361 5.23266 22.5017 5.49833C22.7674 5.76401 22.9167 6.12434 22.9167 6.50007V10.7501H3.08333V6.50007ZM3.08333 13.5834H22.9167V23.5001C22.9167 23.8758 22.7674 24.2361 22.5017 24.5018C22.2361 24.7675 21.8757 24.9167 21.5 24.9167H4.5C4.12428 24.9167 3.76394 24.7675 3.49827 24.5018C3.23259 24.2361 3.08333 23.8758 3.08333 23.5001V13.5834Z" fill="white"/>
</svg>
