<svg width="77" height="91" viewBox="0 0 77 91" fill="none" xmlns="http://www.w3.org/2000/svg">
<path d="M44.0375 90.3524C41.9133 90.6673 39.7397 90.8318 37.528 90.8318C29.4375 90.8318 21.8579 88.6476 15.3428 84.8406C16.3725 81.0192 18.3537 77.6225 20.9946 74.8857C20.8823 75.0019 20.7706 75.1187 20.6608 75.2372H47.8673L44.0375 90.3524Z" fill="#E9E3D5"/>
<path d="M59.7133 84.8406C58.7588 81.2986 56.9803 78.1854 54.7982 75.683C53.3808 74.0954 51.9118 72.7508 50.0548 71.5692C49.9275 71.4767 49.3011 71.0971 49.0998 70.9794C39.6364 65.4302 27.8721 67.4446 20.6611 75.2374C26.908 77.7975 33.6627 78.9667 40.448 78.6537C40.7014 78.719 40.9397 78.7477 41.1659 78.7477C42.752 78.7477 44.0379 80.0336 44.0379 81.6197V90.3524C49.6832 89.5151 54.9795 87.6069 59.7133 84.8406Z" fill="#D3CDBF"/>
<path d="M54.4258 87.4698C52.9184 88.0971 51.3689 88.6431 49.7822 89.1023V78.7478C52.1028 81.0952 53.754 84.1057 54.4258 87.4698Z" fill="#A19B8D"/>
<path d="M25.2744 78.7478V89.1023C23.6878 88.6433 22.1383 88.0971 20.6309 87.4698C21.3027 84.1057 22.9537 81.0952 25.2744 78.7478Z" fill="#B6B0A2"/>
<path d="M38.2943 84.5887C39.0874 84.5887 39.7302 83.9458 39.7302 83.1527C39.7302 82.3597 39.0874 81.7168 38.2943 81.7168C37.5013 81.7168 36.8584 82.3597 36.8584 83.1527C36.8584 83.9458 37.5013 84.5887 38.2943 84.5887Z" fill="#3E4954"/>
<path d="M38.2943 90.3326C39.0874 90.3326 39.7302 89.6897 39.7302 88.8967C39.7302 88.1037 39.0874 87.4608 38.2943 87.4608C37.5013 87.4608 36.8584 88.1037 36.8584 88.8967C36.8584 89.6897 37.5013 90.3326 38.2943 90.3326Z" fill="#3E4954"/>
<path d="M65.0993 47.5904C65.0993 32.7468 53.0582 16.9554 38.2937 16.9554C26.0483 16.9554 15.7214 27.7865 12.5169 39.9087C11.3455 39.3127 10.0207 38.9743 8.6161 38.9743C3.85762 38.9743 0 42.8317 0 47.5904C0 52.349 3.85743 56.2065 8.6161 56.2065C8.86288 56.2065 9.10644 56.1936 9.34793 56.1733C9.5881 61.1063 12.2275 65.8017 16.8534 68.5442C30.0153 76.3465 46.5721 76.3465 59.7341 68.5442C67.1214 64.1649 69.3948 54.8818 65.0993 47.5904Z" fill="#FFB578"/>
<path d="M67.9714 38.9743C66.566 38.9743 65.2405 39.3129 64.0685 39.9098C61.9454 31.8763 56.6979 24.4243 49.8487 20.3016C49.8487 20.3016 57.239 29.0202 57.239 45.6767C57.239 50.7694 54.5132 55.6814 49.7155 58.5253C37.6293 65.6899 22.681 66.2743 10.127 60.2811C11.2518 63.6163 13.5423 66.5811 16.8536 68.544C30.0155 76.3464 46.5723 76.3464 59.7341 68.544C64.3817 65.7889 67.003 61.0931 67.2401 56.1733C67.4814 56.1936 67.7248 56.2065 67.9714 56.2065C72.7299 56.2065 76.5875 52.349 76.5875 47.5904C76.5875 42.8317 72.7299 38.9743 67.9714 38.9743Z" fill="#F7A16E"/>
<path d="M8.61618 50.4633C10.2024 50.4633 11.4882 49.1775 11.4882 47.5913C11.4882 46.0051 10.2024 44.7193 8.61618 44.7193C7.02999 44.7193 5.74414 46.0051 5.74414 47.5913C5.74414 49.1775 7.02999 50.4633 8.61618 50.4633Z" fill="#F7A16E"/>
<path d="M67.9716 50.4633C69.5578 50.4633 70.8437 49.1775 70.8437 47.5913C70.8437 46.0051 69.5578 44.7193 67.9716 44.7193C66.3855 44.7193 65.0996 46.0051 65.0996 47.5913C65.0996 49.1775 66.3855 50.4633 67.9716 50.4633Z" fill="#CE795F"/>
<path d="M12.5174 39.8981C14.451 40.8818 15.9634 42.5732 16.7135 44.6313C17.057 45.5743 18.2403 45.8973 18.9958 45.2368C22.6085 42.0787 24.8915 37.4379 24.8915 32.2623C24.8915 29.0447 24.0086 26.0338 22.4732 23.4564C22.4732 23.4566 10.8655 26.6637 12.5174 39.8981Z" fill="#596775"/>
<path d="M54.1146 23.4566C52.5794 26.0338 51.6963 29.0449 51.6963 32.2625C51.6963 37.4382 53.9791 42.0789 57.592 45.237C58.3478 45.8975 59.5309 45.5745 59.8743 44.6315C60.6241 42.5732 62.1368 40.882 64.0704 39.8983C65.7225 26.6637 54.1146 23.4566 54.1146 23.4566Z" fill="#46525E"/>
<path d="M63.185 11.2008H13.4033V31.6784H63.185V11.2008Z" fill="#E9E3D5"/>
<path d="M62.1315 -1.52588e-05C60.7428 -1.52588e-05 15.1909 -1.52588e-05 14.4559 -1.52588e-05C9.64458 -1.52588e-05 5.74414 3.90043 5.74414 8.71174C5.74414 13.5231 9.64458 17.4235 14.4559 17.4235C14.8251 17.4235 61.1806 17.4235 62.1315 17.4235C66.9428 17.4235 70.8433 13.5231 70.8433 8.71174C70.8433 3.90043 66.9428 -1.52588e-05 62.1315 -1.52588e-05Z" fill="#E9E3D5"/>
<path d="M70.8438 8.71173C70.8438 7.19883 70.4576 5.7763 69.7791 4.53659C67.9147 5.01051 66.5356 6.7 66.5356 8.71173C66.5356 11.1398 64.5601 13.1155 62.1318 13.1155H14.4564C12.4447 13.1155 10.7552 14.4947 10.2812 16.359C11.521 17.0375 12.9435 17.4237 14.4564 17.4237H22.9766H38.2941C48.8567 17.4237 61.1596 17.4237 62.1318 17.4237C66.9433 17.4235 70.8438 13.5232 70.8438 8.71173Z" fill="#D3CDBF"/>
<path d="M15.7009 8.71177C15.7009 7.91863 15.058 7.27585 14.265 7.27585C13.4719 7.27585 12.8291 7.91882 12.8291 8.71177C12.8291 11.0991 13.6598 13.2952 15.045 15.0301H19.3765C17.1831 13.7755 15.7009 11.4144 15.7009 8.71177Z" fill="#D3CDBF"/>
<path d="M63.7599 8.71177C63.7599 7.91863 63.1169 7.27585 62.324 7.27585C61.531 7.27585 60.8881 7.91882 60.8881 8.71177C60.8881 11.4144 59.4059 13.7755 57.2129 15.0301H61.5444C62.9292 13.2952 63.7599 11.0993 63.7599 8.71177Z" fill="#D3CDBF"/>
<path d="M53.6111 7.27585C52.818 7.27585 52.1752 7.91882 52.1752 8.71177C52.1752 11.4144 50.693 13.7755 48.5 15.0301H52.8315C54.2165 13.295 55.0474 11.0991 55.0474 8.71177C55.0472 7.91882 54.4042 7.27585 53.6111 7.27585Z" fill="#D3CDBF"/>
<path d="M27.1892 8.71177C27.1892 7.91863 26.5463 7.27585 25.7533 7.27585C24.9604 7.27585 24.3174 7.91882 24.3174 8.71177C24.3174 11.0991 25.1481 13.2952 26.5332 15.0301H30.8648C28.6716 13.7755 27.1892 11.4144 27.1892 8.71177Z" fill="#D3CDBF"/>
</svg>
