<svg width="32" height="32" viewBox="0 0 32 32" fill="none" xmlns="http://www.w3.org/2000/svg">
<path d="M6.29434 8.05957H4.52956C3.59346 8.05957 2.69571 8.43141 2.03378 9.09328C1.37186 9.75516 1 10.6529 1 11.5889V27.4708C1 28.4069 1.37186 29.3046 2.03378 29.9665C2.69571 30.6283 3.59346 31.0002 4.52956 31.0002H20.4126C21.3487 31.0002 22.2464 30.6283 22.9084 29.9665C23.5703 29.3046 23.9421 28.4069 23.9421 27.4708V25.7062" stroke="black" stroke-width="2" stroke-linecap="round" stroke-linejoin="round"/>
<path d="M22.1757 4.52951L27.4701 9.8235M29.9143 7.3265C30.6093 6.63149 30.9998 5.68886 30.9998 4.70598C30.9998 3.72309 30.6093 2.78046 29.9143 2.08546C29.2192 1.39045 28.2765 1 27.2936 1C26.3106 1 25.368 1.39045 24.6729 2.08546L9.82227 16.8821V22.1761H15.1166L29.9143 7.3265Z" stroke="black" stroke-width="2" stroke-linecap="round" stroke-linejoin="round"/>
</svg>
