<svg width="43" height="43" viewBox="0 0 43 43" fill="none" xmlns="http://www.w3.org/2000/svg">
<path d="M43 21.6332C43 9.6822 33.3693 0 21.5 0C9.62259 0 0 9.6822 0 21.6332C0 32.4281 7.85959 41.3789 18.1406 43V27.8879H12.681V21.6345H18.1406V16.8658C18.1406 11.4453 21.3455 8.45181 26.2582 8.45181C28.6111 8.45181 31.0742 8.87366 31.0742 8.87366V14.1968H28.3585C25.6925 14.1968 24.8594 15.8666 24.8594 17.577V21.6332H30.8216L29.8635 27.8865H24.8594V42.9986C35.1323 41.3775 43 32.4268 43 21.6318V21.6332Z" fill="white"/>
</svg>
