<svg width="29" height="25" viewBox="0 0 29 25" fill="none" xmlns="http://www.w3.org/2000/svg">
<path d="M29 8.07482C29 17.1916 15.5629 24.5709 14.9907 24.8757C14.8398 24.9573 14.6713 25 14.5 25C14.3287 25 14.1602 24.9573 14.0093 24.8757C13.4371 24.5709 0 17.1916 0 8.07482C0.00239863 5.93399 0.848846 3.88153 2.35364 2.36773C3.85844 0.853926 5.89869 0.00241299 8.02679 0C10.7002 0 13.0409 1.15652 14.5 3.11141C15.9591 1.15652 18.2998 0 20.9732 0C23.1013 0.00241299 25.1416 0.853926 26.6464 2.36773C28.1512 3.88153 28.9976 5.93399 29 8.07482Z" fill="#F24E1E"/>
</svg>
