<svg width="30" height="30" viewBox="0 0 30 30" fill="none" xmlns="http://www.w3.org/2000/svg">
<path d="M15.0015 10.5C13.808 10.5 12.6634 10.9741 11.8195 11.818C10.9756 12.6619 10.5015 13.8065 10.5015 15C10.5015 16.1935 10.9756 17.3381 11.8195 18.182C12.6634 19.0259 13.808 19.5 15.0015 19.5C16.195 19.5 17.3396 19.0259 18.1835 18.182C19.0274 17.3381 19.5015 16.1935 19.5015 15C19.5015 13.8065 19.0274 12.6619 18.1835 11.818C17.3396 10.9741 16.195 10.5 15.0015 10.5ZM15.0015 7.5C16.9906 7.5 18.8983 8.29018 20.3048 9.6967C21.7113 11.1032 22.5015 13.0109 22.5015 15C22.5015 16.9891 21.7113 18.8968 20.3048 20.3033C18.8983 21.7098 16.9906 22.5 15.0015 22.5C13.0124 22.5 11.1047 21.7098 9.6982 20.3033C8.29168 18.8968 7.5015 16.9891 7.5015 15C7.5015 13.0109 8.29168 11.1032 9.6982 9.6967C11.1047 8.29018 13.0124 7.5 15.0015 7.5ZM24.7515 7.125C24.7515 7.62228 24.554 8.09919 24.2023 8.45082C23.8507 8.80246 23.3738 9 22.8765 9C22.3792 9 21.9023 8.80246 21.5507 8.45082C21.199 8.09919 21.0015 7.62228 21.0015 7.125C21.0015 6.62772 21.199 6.15081 21.5507 5.79917C21.9023 5.44754 22.3792 5.25 22.8765 5.25C23.3738 5.25 23.8507 5.44754 24.2023 5.79917C24.554 6.15081 24.7515 6.62772 24.7515 7.125ZM15.0015 3C11.2905 3 10.6845 3.0105 8.958 3.087C7.782 3.1425 6.993 3.3 6.261 3.585C5.64842 3.80991 5.09462 4.17039 4.641 4.6395C4.17151 5.0931 3.81053 5.64688 3.585 6.2595C3.3 6.9945 3.1425 7.782 3.0885 8.9565C3.0105 10.6125 3 11.1915 3 15C3 18.7125 3.0105 19.317 3.087 21.0435C3.1425 22.218 3.3 23.0085 3.5835 23.739C3.8385 24.3915 4.1385 24.861 4.6365 25.359C5.142 25.863 5.6115 26.1645 6.2565 26.4135C6.9975 26.7 7.7865 26.859 8.9565 26.913C10.6125 26.991 11.1915 27 15 27C18.7125 27 19.317 26.9895 21.0435 26.913C22.2165 26.8575 23.0055 26.7 23.739 26.4165C24.351 26.1905 24.9046 25.8302 25.359 25.362C25.8645 24.858 26.166 24.3885 26.415 23.742C26.7 23.004 26.859 22.215 26.913 21.042C26.991 19.3875 27 18.807 27 15C27 11.289 26.9895 10.683 26.913 8.9565C26.8575 7.7835 26.6985 6.9915 26.415 6.2595C26.1889 5.64753 25.8286 5.09397 25.3605 4.6395C24.9071 4.16977 24.3533 3.80875 23.7405 3.5835C23.0055 3.2985 22.2165 3.141 21.0435 3.087C19.389 3.009 18.81 3 15 3M15 0C19.0755 0 19.584 0.0149999 21.1845 0.0899999C22.7805 0.165 23.8695 0.4155 24.825 0.7875C25.815 1.1685 26.649 1.6845 27.483 2.517C28.2457 3.26684 28.8359 4.17388 29.2125 5.175C29.583 6.1305 29.835 7.2195 29.91 8.817C29.9805 10.416 30 10.9245 30 15C30 19.0755 29.985 19.584 29.91 21.183C29.835 22.7805 29.583 23.868 29.2125 24.825C28.837 25.8266 28.2466 26.7339 27.483 27.483C26.7329 28.2455 25.826 28.8356 24.825 29.2125C23.8695 29.583 22.7805 29.835 21.1845 29.91C19.584 29.9805 19.0755 30 15 30C10.9245 30 10.416 29.985 8.8155 29.91C7.2195 29.835 6.132 29.583 5.175 29.2125C4.17349 28.8367 3.26629 28.2464 2.517 27.483C1.75415 26.7332 1.16394 25.8262 0.7875 24.825C0.4155 23.8695 0.165 22.7805 0.0899999 21.183C0.0179999 19.584 0 19.0755 0 15C0 10.9245 0.0149999 10.416 0.0899999 8.817C0.165 7.2195 0.4155 6.132 0.7875 5.175C1.16285 4.17327 1.75321 3.26598 2.517 2.517C3.26651 1.75385 4.17364 1.16359 5.175 0.7875C6.1305 0.4155 7.218 0.165 8.8155 0.0899999C10.4175 0.0194999 10.926 0 15.0015 0" fill="black"/>
</svg>
