<svg width="43" height="43" viewBox="0 0 43 43" fill="none" xmlns="http://www.w3.org/2000/svg">
<path d="M21.5022 15.05C19.7915 15.05 18.1509 15.7296 16.9413 16.9392C15.7317 18.1488 15.0522 19.7894 15.0522 21.5C15.0522 23.2106 15.7317 24.8512 16.9413 26.0608C18.1509 27.2705 19.7915 27.95 21.5022 27.95C23.2128 27.95 24.8534 27.2705 26.063 26.0608C27.2726 24.8512 27.9522 23.2106 27.9522 21.5C27.9522 19.7894 27.2726 18.1488 26.063 16.9392C24.8534 15.7296 23.2128 15.05 21.5022 15.05ZM21.5022 10.75C24.3532 10.75 27.0875 11.8826 29.1035 13.8986C31.1196 15.9146 32.2522 18.6489 32.2522 21.5C32.2522 24.3511 31.1196 27.0854 29.1035 29.1014C27.0875 31.1174 24.3532 32.25 21.5022 32.25C18.6511 32.25 15.9168 31.1174 13.9008 29.1014C11.8847 27.0854 10.7522 24.3511 10.7522 21.5C10.7522 18.6489 11.8847 15.9146 13.9008 13.8986C15.9168 11.8826 18.6511 10.75 21.5022 10.75ZM35.4771 10.2125C35.4771 10.9253 35.194 11.6088 34.69 12.1129C34.186 12.6169 33.5024 12.9 32.7896 12.9C32.0769 12.9 31.3933 12.6169 30.8893 12.1129C30.3853 11.6088 30.1021 10.9253 30.1021 10.2125C30.1021 9.49973 30.3853 8.81615 30.8893 8.31215C31.3933 7.80815 32.0769 7.525 32.7896 7.525C33.5024 7.525 34.186 7.80815 34.69 8.31215C35.194 8.81615 35.4771 9.49973 35.4771 10.2125ZM21.5022 4.3C16.1831 4.3 15.3145 4.31505 12.8398 4.4247C11.1542 4.50425 10.0233 4.73 8.9741 5.1385C8.09607 5.46087 7.30229 5.97756 6.6521 6.64995C5.97916 7.30011 5.46176 8.09385 5.1385 8.97195C4.73 10.0254 4.50425 11.1542 4.42685 12.8377C4.31505 15.2113 4.3 16.0412 4.3 21.5C4.3 26.8213 4.31505 27.6877 4.4247 30.1623C4.50425 31.8458 4.73 32.9789 5.13635 34.0259C5.50185 34.9612 5.93185 35.6341 6.64565 36.3479C7.3702 37.0703 8.04315 37.5024 8.96765 37.8593C10.0298 38.27 11.1607 38.4979 12.8377 38.5753C15.2113 38.6871 16.0412 38.7 21.5 38.7C26.8213 38.7 27.6877 38.685 30.1623 38.5753C31.8437 38.4958 32.9746 38.27 34.0259 37.8637C34.9031 37.5397 35.6966 37.0232 36.3479 36.3522C37.0725 35.6298 37.5046 34.9568 37.8615 34.0302C38.27 32.9724 38.4979 31.8415 38.5753 30.1602C38.6871 27.7888 38.7 26.9567 38.7 21.5C38.7 16.1809 38.685 15.3123 38.5753 12.8377C38.4958 11.1564 38.2679 10.0212 37.8615 8.97195C37.5374 8.09479 37.021 7.30136 36.3501 6.64995C35.7002 5.97667 34.9063 5.45921 34.028 5.13635C32.9746 4.72785 31.8437 4.5021 30.1623 4.4247C27.7909 4.3129 26.961 4.3 21.5 4.3M21.5 0C27.3416 0 28.0704 0.0214999 30.3645 0.129C32.6521 0.2365 34.213 0.59555 35.5825 1.12875C37.0015 1.67485 38.1969 2.41445 39.3923 3.6077C40.4856 4.68248 41.3315 5.98257 41.8713 7.4175C42.4023 8.78705 42.7635 10.3479 42.871 12.6377C42.9721 14.9296 43 15.6585 43 21.5C43 27.3416 42.9785 28.0704 42.871 30.3623C42.7635 32.6521 42.4023 34.2108 41.8713 35.5825C41.333 37.0182 40.4869 38.3186 39.3923 39.3923C38.3172 40.4852 37.0172 41.3311 35.5825 41.8713C34.213 42.4023 32.6521 42.7635 30.3645 42.871C28.0704 42.9721 27.3416 43 21.5 43C15.6585 43 14.9296 42.9785 12.6356 42.871C10.3479 42.7635 8.7892 42.4023 7.4175 41.8713C5.982 41.3326 4.68168 40.4865 3.6077 39.3923C2.51428 38.3177 1.66831 37.0175 1.12875 35.5825C0.59555 34.213 0.2365 32.6521 0.129 30.3623C0.0257999 28.0704 0 27.3416 0 21.5C0 15.6585 0.0214999 14.9296 0.129 12.6377C0.2365 10.3479 0.59555 8.7892 1.12875 7.4175C1.66676 5.98169 2.51293 4.68124 3.6077 3.6077C4.68199 2.51385 5.98222 1.66782 7.4175 1.12875C8.78705 0.59555 10.3458 0.2365 12.6356 0.129C14.9318 0.0279499 15.6606 0 21.5022 0" fill="white"/>
</svg>
