<svg width="43" height="43" viewBox="0 0 43 43" fill="none" xmlns="http://www.w3.org/2000/svg">
<path d="M21.5314 0C9.63957 0 0 9.61588 0 21.4767C0 30.5766 5.67203 38.3488 13.6826 41.4753C13.494 39.775 13.3251 37.1699 13.7562 35.3137C14.1495 33.635 16.2815 24.6408 16.2815 24.6408C16.2815 24.6408 15.6367 23.3508 15.6367 21.4498C15.6367 18.4703 17.3735 16.2343 19.5306 16.2343C21.3698 16.2343 22.257 17.6121 22.257 19.2586C22.257 21.1022 21.0842 23.8578 20.4753 26.411C19.9635 28.5484 21.553 30.2899 23.6634 30.2899C27.4854 30.2899 30.431 26.2676 30.431 20.459C30.431 15.3331 26.7257 11.7354 21.4362 11.7354C15.3116 11.7354 11.7212 16.3257 11.7212 21.0503C11.7212 22.9011 12.4289 24.8898 13.3179 25.9612C13.4958 26.1762 13.5191 26.3644 13.4706 26.5794C13.309 27.2512 12.9444 28.7276 12.8707 29.0214C12.7755 29.4245 12.5618 29.507 12.1505 29.317C9.46535 28.0808 7.78063 24.1606 7.78063 20.993C7.78063 14.2276 12.7163 7.99979 22.0056 7.99979C29.4737 7.99979 35.2822 13.3157 35.2822 20.4035C35.2822 27.812 30.5998 33.7729 24.0873 33.7729C21.9068 33.7729 19.8593 32.646 19.1337 31.3022L17.7884 36.4049C17.3052 38.2772 15.9851 40.6189 15.0979 42.0415C17.1149 42.6596 19.2396 43 21.474 43C33.3407 43 43 33.3877 43 21.5233C43 9.65708 33.3407 0.0465833 21.474 0.0465833L21.5314 0Z" fill="white"/>
</svg>
