<svg width="30" height="30" viewBox="0 0 30 30" fill="none" xmlns="http://www.w3.org/2000/svg">
<path d="M15.0219 0C6.72528 0 0 6.70875 0 14.9838C0 21.3325 3.95723 26.755 9.54597 28.9363C9.41439 27.75 9.29661 25.9325 9.59734 24.6375C9.87177 23.4662 11.3592 17.1912 11.3592 17.1912C11.3592 17.1912 10.9093 16.2913 10.9093 14.965C10.9093 12.8863 12.121 11.3263 13.626 11.3263C14.9092 11.3263 15.5282 12.2875 15.5282 13.4362C15.5282 14.7225 14.7099 16.645 14.2851 18.4263C13.928 19.9175 15.037 21.1325 16.5093 21.1325C19.1759 21.1325 21.2309 18.3263 21.2309 14.2737C21.2309 10.6975 18.6458 8.1875 14.9555 8.1875C10.6825 8.1875 8.1776 11.39 8.1776 14.6862C8.1776 15.9775 8.67132 17.365 9.29159 18.1125C9.41565 18.2625 9.43194 18.3937 9.3981 18.5438C9.28533 19.0125 9.03095 20.0425 8.97958 20.2475C8.91316 20.5287 8.76405 20.5863 8.47709 20.4538C6.60373 19.5913 5.42835 16.8563 5.42835 14.6462C5.42835 9.92625 8.87181 5.58125 15.3527 5.58125C20.5631 5.58125 24.6155 9.29 24.6155 14.235C24.6155 19.4037 21.3487 23.5625 16.8051 23.5625C15.2838 23.5625 13.8553 22.7763 13.3491 21.8388L12.4105 25.3988C12.0734 26.705 11.1524 28.3388 10.5334 29.3312C11.9406 29.7625 13.423 30 14.9818 30C23.2609 30 30 23.2937 30 15.0162C30 6.7375 23.2609 0.0325 14.9818 0.0325L15.0219 0Z" fill="black"/>
</svg>
