<svg width="40" height="40" viewBox="0 0 40 40" fill="none" xmlns="http://www.w3.org/2000/svg">
<path d="M17.7921 4.01256e-08C21.133 -0.000224282 24.4065 0.940108 27.238 2.71338C30.0694 4.48666 32.3444 7.02123 33.8026 10.027C35.2608 13.0328 35.8433 16.3884 35.4833 19.7098C35.1234 23.0312 33.8356 26.1841 31.7674 28.8078L39.4124 36.4525C39.7937 36.8473 40.0047 37.376 39.9999 37.9249C39.9951 38.4738 39.775 38.9988 39.3869 39.3869C38.9987 39.775 38.4737 39.9951 37.9248 39.9999C37.3759 40.0047 36.8472 39.7937 36.4523 39.4124L28.8074 31.7677C26.5789 33.5239 23.9627 34.7217 21.1771 35.2612C18.3915 35.8007 15.5173 35.6663 12.7942 34.8691C10.0711 34.0719 7.5782 32.6352 5.52337 30.6786C3.46855 28.7221 1.91142 26.3025 0.981904 23.6219C0.0523892 20.9412 -0.222559 18.0771 0.179998 15.2685C0.582556 12.46 1.65095 9.78839 3.29603 7.4767C4.94112 5.16501 7.11519 3.28023 9.63688 1.97961C12.1586 0.678987 14.9547 0.000241757 17.7921 4.01256e-08ZM17.7921 4.18657C14.1833 4.18657 10.7224 5.62009 8.17058 8.17178C5.61879 10.7235 4.18522 14.1843 4.18522 17.7929C4.18522 21.4016 5.61879 24.8624 8.17058 27.4141C10.7224 29.9658 14.1833 31.3993 17.7921 31.3993C21.4009 31.3993 24.8618 29.9658 27.4136 27.4141C29.9654 24.8624 31.399 21.4016 31.399 17.7929C31.399 14.1843 29.9654 10.7235 27.4136 8.17178C24.8618 5.62009 21.4009 4.18657 17.7921 4.18657ZM17.7921 6.27986C20.8457 6.27986 23.7742 7.49284 25.9334 9.65196C28.0926 11.8111 29.3056 14.7395 29.3056 17.7929C29.3056 20.8464 28.0926 23.7748 25.9334 25.9339C23.7742 28.093 20.8457 29.306 17.7921 29.306C14.7385 29.306 11.81 28.093 9.65081 25.9339C7.49161 23.7748 6.27858 20.8464 6.27858 17.7929C6.27858 14.7395 7.49161 11.8111 9.65081 9.65196C11.81 7.49284 14.7385 6.27986 17.7921 6.27986Z" fill="#111111"/>
</svg>
