<svg width="32" height="32" viewBox="0 0 32 32" fill="none" xmlns="http://www.w3.org/2000/svg">
<path d="M11.6219 32L10.9851 26.88C10.6401 26.7467 10.3154 26.5867 10.0107 26.4C9.70614 26.2133 9.40736 26.0133 9.11443 25.8L4.37811 27.8L0 20.2L4.0995 17.08C4.07297 16.8933 4.0597 16.7136 4.0597 16.5408V15.4608C4.0597 15.2869 4.07297 15.1067 4.0995 14.92L0 11.8L4.37811 4.2L9.11443 6.2C9.4063 5.98667 9.71144 5.78667 10.0299 5.6C10.3483 5.41333 10.6667 5.25333 10.9851 5.12L11.6219 0H20.3781L21.0149 5.12C21.3599 5.25333 21.6852 5.41333 21.9908 5.6C22.2965 5.78667 22.5948 5.98667 22.8856 6.2L27.6219 4.2L32 11.8L27.9005 14.92C27.927 15.1067 27.9403 15.2869 27.9403 15.4608V16.5392C27.9403 16.7131 27.9138 16.8933 27.8607 17.08L31.9602 20.2L27.5821 27.8L22.8856 25.8C22.5937 26.0133 22.2886 26.2133 21.9702 26.4C21.6517 26.5867 21.3333 26.7467 21.0149 26.88L20.3781 32H11.6219ZM16.0796 21.6C17.6186 21.6 18.932 21.0533 20.0199 19.96C21.1078 18.8667 21.6517 17.5467 21.6517 16C21.6517 14.4533 21.1078 13.1333 20.0199 12.04C18.932 10.9467 17.6186 10.4 16.0796 10.4C14.5141 10.4 13.1938 10.9467 12.1186 12.04C11.0435 13.1333 10.5064 14.4533 10.5075 16C10.5085 17.5467 11.0461 18.8667 12.1202 19.96C13.1943 21.0533 14.5141 21.6 16.0796 21.6Z" fill="#111111"/>
</svg>
