<svg width="155" height="155" viewBox="0 0 155 155" fill="none" xmlns="http://www.w3.org/2000/svg">
<path d="M77.5 0C87.7771 0 97.6334 4.08258 104.9 11.3496C112.167 18.6166 116.25 28.4729 116.25 38.75C116.25 49.0271 112.167 58.8834 104.9 66.1504C97.6334 73.4174 87.7771 77.5 77.5 77.5C67.2229 77.5 57.3666 73.4174 50.0996 66.1504C42.8326 58.8834 38.75 49.0271 38.75 38.75C38.75 28.4729 42.8326 18.6166 50.0996 11.3496C57.3666 4.08258 67.2229 0 77.5 0ZM77.5 96.875C120.319 96.875 155 114.216 155 135.625V155H0V135.625C0 114.216 34.6812 96.875 77.5 96.875Z" fill="#F8F8F8"/>
</svg>
